states
version=1
nRows=16
nColumns=39
inDegrees=yes
endheader
time	/hamstrings_r/activation	/bifemsh_r/activation	/glut_max_r/activation	/iliopsoas_r/activation	/rect_fem_r/activation	/vasti_r/activation	/gastroc_r/activation	/soleus_r/activation	/tib_ant_r/activation	/hamstrings_l/activation	/bifemsh_l/activation	/glut_max_l/activation	/iliopsoas_l/activation	/rect_fem_l/activation	/vasti_l/activation	/gastroc_l/activation	/soleus_l/activation	/tib_ant_l/activation	/jointset/groundPelvis/pelvis_tilt/value	/jointset/groundPelvis/pelvis_tilt/speed	/jointset/groundPelvis/pelvis_tx/value	/jointset/groundPelvis/pelvis_tx/speed	/jointset/groundPelvis/pelvis_ty/value	/jointset/groundPelvis/pelvis_ty/speed	/jointset/hip_l/hip_flexion_l/value	/jointset/hip_l/hip_flexion_l/speed	/jointset/hip_r/hip_flexion_r/value	/jointset/hip_r/hip_flexion_r/speed	/jointset/knee_l/knee_angle_l/value	/jointset/knee_l/knee_angle_l/speed	/jointset/knee_r/knee_angle_r/value	/jointset/knee_r/knee_angle_r/speed	/jointset/ankle_l/ankle_angle_l/value	/jointset/ankle_l/ankle_angle_l/speed	/jointset/ankle_r/ankle_angle_r/value	/jointset/ankle_r/ankle_angle_r/speed	/jointset/lumbar/lumbar/value	/jointset/lumbar/lumbar/speed
      0.36000000	      0.01000000	      0.01000000	      0.01000000	      0.01000000	      0.01000000	      0.01000000	      0.01000000	      0.01000000	      0.01000000	      0.01000000	      0.01000000	      0.01000000	      0.01000000	      0.01000000	      0.01000000	      0.01000000	      0.01000000	      0.01000000	     38.18006786	    -42.47386578	      0.05814278	      0.09215352	      0.53845628	     -0.04590347	     54.82823711	     47.00450376	     55.38971740	     46.68703688	   -113.21092102	     -6.14495177	   -112.96415068	     -7.82887234	     18.80280855	      1.90844941	     20.60316708	      2.37160481	    -60.58982950	    -32.16951304
      0.37000000	      0.01000000	      0.01000000	      0.01000000	      0.01000000	      0.01000000	      0.01000000	      0.01000000	      0.01000000	      0.01000000	      0.01000000	      0.01000000	      0.01000000	      0.01000000	      0.01000000	      0.01000000	      0.01000000	      0.01000000	      0.01000000	     37.89746395	    -36.42762109	      0.05894799	      0.09003384	      0.53824185	     -0.03090836	     55.11635340	     38.70299286	     55.67444456	     37.73967732	   -113.26062511	     -5.20821899	   -113.02549142	     -6.63959586	     18.87889285	      4.33922035	     20.67978375	      5.22407473	    -61.13374607	    -45.77481906
      0.38000000	      0.01000000	      0.01000000	      0.01000000	      0.01000000	      0.01000000	      0.01000000	      0.01000000	      0.01000000	      0.01000000	      0.01000000	      0.01000000	      0.01000000	      0.01000000	      0.01000000	      0.01000000	      0.01000000	      0.01000000	      0.01000000	     37.41781374	    -39.92140794	      0.05997710	      0.09734990	      0.53777968	     -0.03212667	     55.64499435	     42.42653038	     56.18923777	     41.38707536	   -113.32010741	     -5.60230341	   -113.10246148	     -6.96458509	     18.87779224	      3.48646117	     20.69408081	      4.34596727	    -61.45271803	    -44.61592461
      0.39000000	      0.01000000	      0.01000000	      0.01000000	      0.01000000	      0.01000000	      0.01000000	      0.01000000	      0.01000000	      0.01000000	      0.01000000	      0.01000000	      0.01000000	      0.01000000	      0.01000000	      0.01000000	      0.01000000	      0.01000000	      0.01000000	     37.09874132	    -43.99437504	      0.06089426	      0.10499287	      0.53760678	     -0.03224655	     55.96102005	     45.76672590	     56.50210817	     45.65115146	   -113.36995199	     -5.34195674	   -113.16445850	     -7.26848752	     18.96026068	      5.47986224	     20.77624604	      5.76181612	    -62.02788796	    -43.17242826
      0.40000000	      0.01000000	      0.01000000	      0.01000000	      0.01000000	      0.01000000	      0.01000000	      0.01000000	      0.01000000	      0.01000000	      0.01000000	      0.01000000	      0.01000000	      0.01000000	      0.01000000	      0.01000000	      0.01000000	      0.01000000	      0.01000000	     36.53421991	    -48.27843429	      0.06208283	      0.11343399	      0.53712020	     -0.03509852	     56.56925098	     50.47198274	     57.10548194	     49.80476287	   -113.42935912	     -5.65189755	   -113.24746622	     -7.39148573	     18.97096722	      3.60744124	     20.79661411	      4.19636830	    -62.30939748	    -41.04448480
      0.41000000	      0.01000000	      0.01000000	      0.01000000	      0.01000000	      0.01000000	      0.01000000	      0.01000000	      0.01000000	      0.01000000	      0.01000000	      0.01000000	      0.01000000	      0.01000000	      0.01000000	      0.01000000	      0.01000000	      0.01000000	      0.01000000	     36.19522428	    -35.83671762	      0.06310132	      0.10537104	      0.53699543	     -0.01357445	     56.89064887	     33.76263518	     57.42268669	     33.63843958	   -113.47849959	     -4.80918531	   -113.30665012	     -5.98539427	     19.07201300	     11.98338761	     20.89075812	     10.54902810	    -62.93748402	    -62.94048378
      0.42000000	      0.01000000	      0.01000000	      0.01000000	      0.01000000	      0.01000000	      0.01000000	      0.01000000	      0.01000000	      0.01000000	      0.01000000	      0.01000000	      0.01000000	      0.01000000	      0.01000000	      0.01000000	      0.01000000	      0.01000000	      0.01000000	     35.77832348	    -35.42385088	      0.06423486	      0.11072549	      0.53679617	     -0.00852996	     57.29723551	     32.92392121	     57.82954127	     33.01352721	   -113.53029732	     -5.27571633	   -113.37084649	     -5.74705049	     19.17239477	     10.44077616	     20.97830705	      9.28528633	    -63.52210242	    -70.18482637
      0.43000000	      0.01000000	      0.01000000	      0.01000000	      0.01000000	      0.01000000	      0.01000000	      0.01000000	      0.01000000	      0.01000000	      0.01000000	      0.01000000	      0.01000000	      0.01000000	      0.01000000	      0.01000000	      0.01000000	      0.01000000	      0.01000000	     35.33923872	    -73.75629642	      0.06545399	      0.15238739	      0.53659307	     -0.06450400	     57.72024069	     77.13883200	     58.25494690	     77.65228422	   -113.58808390	     -6.89082581	   -113.43837799	     -9.95466071	     19.29193757	     11.33908374	     21.08309220	      9.36708032	    -64.11547802	    -18.11326558
      0.44000000	      0.01000000	      0.01000000	      0.01000000	      0.01000000	      0.01000000	      0.01000000	      0.01000000	      0.01000000	      0.01000000	      0.01000000	      0.01000000	      0.01000000	      0.01000000	      0.01000000	      0.01000000	      0.01000000	      0.01000000	      0.01000000	     34.50448073	    -59.12644237	      0.06708845	      0.14312464	      0.53580185	     -0.04285898	     58.60709960	     59.99444767	     59.14858190	     60.59468050	   -113.66525610	     -7.82057016	   -113.55044200	     -8.98898154	     19.39181449	     10.96357543	     21.16103991	      9.03922706	    -64.17562793	    -42.44475541
      0.45000000	      0.01000000	      0.01000000	      0.01000000	      0.01000000	      0.01000000	      0.01000000	      0.01000000	      0.01000000	      0.01000000	      0.01000000	      0.01000000	      0.01000000	      0.01000000	      0.01000000	      0.01000000	      0.01000000	      0.01000000	      0.01000000	     34.08919147	    -60.17026663	      0.06839943	      0.15396257	      0.53563521	     -0.04475870	     58.99261614	     59.50091032	     59.53604054	     59.37748920	   -113.74865159	     -9.76274678	   -113.61978880	     -8.41706519	     19.55595857	     22.19534145	     21.32069929	     23.42121944	    -64.86178242	    -42.99164559
      0.46000000	      0.01000000	      0.01000000	      0.01000000	      0.01000000	      0.01000000	      0.01000000	      0.01000000	      0.01000000	      0.01000000	      0.01000000	      0.01000000	      0.01000000	      0.01000000	      0.01000000	      0.01000000	      0.01000000	      0.01000000	      0.01000000	     33.32601889	    -56.52885417	      0.07014735	      0.16139413	      0.53493466	     -0.04200181	     59.77402824	     55.08286794	     60.32152969	     56.42585236	   -113.85321272	     -9.86995689	   -113.73386728	    -11.87975768	     19.78365503	     19.80331033	     21.55796667	     19.49518046	    -65.08920536	    -54.80709493
      0.47000000	      0.01000000	      0.01000000	      0.01000000	      0.01000000	      0.01000000	      0.01000000	      0.01000000	      0.01000000	      0.01000000	      0.01000000	      0.01000000	      0.01000000	      0.01000000	      0.01000000	      0.01000000	      0.01000000	      0.01000000	      0.01000000	     32.86720100	    -76.29644941	      0.07170583	      0.18901515	      0.53467493	     -0.07006094	     60.19791216	     77.26984508	     60.75922126	     77.77573678	   -113.95607481	    -12.59277582	   -113.84447030	    -12.10435656	     19.96861708	     21.37181493	     21.76783720	     29.94412709	    -65.80009082	    -26.08353111
      0.48000000	      0.01000000	      0.01000000	      0.01000000	      0.01000000	      0.01000000	      0.01000000	      0.01000000	      0.01000000	      0.01000000	      0.01000000	      0.01000000	      0.01000000	      0.01000000	      0.01000000	      0.01000000	      0.01000000	      0.01000000	      0.01000000	     31.91375992	    -67.14731093	      0.07383636	      0.19339727	      0.53368545	     -0.05931096	     61.19019336	     66.52360481	     61.75320483	     67.53028105	   -114.09973658	    -13.87499188	   -113.98713892	    -15.14602005	     20.21450849	     23.91142973	     22.11685435	     30.37663980	    -65.78926421	    -42.69253059
      0.49000000	      0.01000000	      0.01000000	      0.01000000	      0.01000000	      0.01000000	      0.01000000	      0.01000000	      0.01000000	      0.01000000	      0.01000000	      0.01000000	      0.01000000	      0.01000000	      0.01000000	      0.01000000	      0.01000000	      0.01000000	      0.01000000	     31.42093183	    -84.10844418	      0.07565167	      0.21763098	      0.53336045	     -0.08051731	     61.64190538	     84.39121346	     62.22062191	     85.23079731	   -114.22628078	    -13.17926516	   -114.13892689	    -15.95242194	     20.42997348	     21.95636651	     22.39607922	     35.72744125	    -66.50192276	    -20.86948547
      0.50000000	      0.01000000	      0.01000000	      0.01000000	      0.01000000	      0.01000000	      0.01000000	      0.01000000	      0.01000000	      0.01000000	      0.01000000	      0.01000000	      0.01000000	      0.01000000	      0.01000000	      0.01000000	      0.01000000	      0.01000000	      0.01000000	     30.30761375	    -81.76981345	      0.07815125	      0.23273659	      0.53219383	     -0.07125511	     62.79287720	     80.56225473	     63.37345224	     81.37022676	   -114.37206073	    -14.76141298	   -114.30292512	    -15.81854993	     20.66583223	     23.38020789	     22.81225287	     36.53900325	    -66.30448087	    -23.50486828
      0.51000000	      0.01000000	      0.01000000	      0.01000000	      0.01000000	      0.01000000	      0.01000000	      0.01000000	      0.01000000	      0.01000000	      0.01000000	      0.01000000	      0.01000000	      0.01000000	      0.01000000	      0.01000000	      0.01000000	      0.01000000	      0.01000000	     29.76107657	    -84.49405658	      0.08032594	      0.25236479	      0.53188889	     -0.07219862	     63.27635784	     81.31979511	     63.86825378	     81.33174652	   -114.51784652	    -15.53578822	   -114.46130320	    -17.30444709	     20.91347339	     28.97228582	     23.16115065	     45.88735938	    -66.93179586	    -17.33385165
